<?xml version="1.0" encoding="utf-8"?>
<!-- Generator: Adobe Illustrator 16.0.0, SVG Export Plug-In . SVG Version: 6.00 Build 0)  -->
<!DOCTYPE svg PUBLIC "-//W3C//DTD SVG 1.1//EN" "http://www.w3.org/Graphics/SVG/1.1/DTD/svg11.dtd">
<svg version="1.1" id="Layer_1" xmlns="http://www.w3.org/2000/svg" xmlns:xlink="http://www.w3.org/1999/xlink" x="0px" y="0px"
	 width="2048px" height="2732px" viewBox="0 0 2048 2732" enable-background="new 0 0 2048 2732" xml:space="preserve">
<path fill="none" stroke="#000000" stroke-width="7" stroke-miterlimit="10" d="M1021.422,783.552"/>
<path fill="none" stroke="#000000" stroke-width="7" stroke-miterlimit="10" d="M519.595,689.717
	c3.106,18.715,35.666,268.412,204.549,385.358"/>
<line fill="none" stroke="#000000" stroke-width="7" stroke-miterlimit="10" x1="519.285" y1="682.841" x2="693.166" y2="697.33"/>
<path fill="none" stroke="#000000" stroke-width="7" stroke-miterlimit="10" d="M705.534,664.086"/>
<line fill="none" stroke="#000000" stroke-width="7" stroke-miterlimit="10" x1="550.401" y1="819.077" x2="656.186" y2="835.867"/>
<g>
	<defs>
		<polygon id="SVGID_1_" points="71.146,4131.094 3141.029,4131.094 3141.029,-110 125.279,195.696 		"/>
	</defs>
	<clipPath id="SVGID_2_">
		<use xlink:href="#SVGID_1_"  overflow="visible"/>
	</clipPath>
	<g clip-path="url(#SVGID_2_)">
		<defs>
			<polygon id="SVGID_3_" points="125.279,195.696 3141.029,-110 3141.029,4131.094 71.146,4131.094 			"/>
		</defs>
		<clipPath id="SVGID_4_">
			<use xlink:href="#SVGID_3_"  overflow="visible"/>
		</clipPath>
		<g opacity="0.19" clip-path="url(#SVGID_4_)">
			<g>
				<defs>
					<polyline id="SVGID_5_" points="2782.776,2333.44 2787.827,15.742 488.582,321.438 					"/>
				</defs>
				<defs>
					<path id="SVGID_6_" d="M483.532,2639.14"/>
				</defs>
				<clipPath id="SVGID_7_">
					<use xlink:href="#SVGID_5_"  overflow="visible"/>
				</clipPath>
				<clipPath id="SVGID_8_" clip-path="url(#SVGID_7_)">
					<use xlink:href="#SVGID_6_"  overflow="visible"/>
				</clipPath>
			</g>
		</g>
		<g opacity="0.19" clip-path="url(#SVGID_4_)">
			<g>
				<defs>
					<path id="SVGID_9_" d="M544.964,433.98"/>
				</defs>
				<defs>
					<polyline id="SVGID_10_" points="544.964,2743.916 2844.209,2438.22 2844.209,128.285 					"/>
				</defs>
				<clipPath id="SVGID_11_">
					<use xlink:href="#SVGID_9_"  overflow="visible"/>
				</clipPath>
				<clipPath id="SVGID_12_" clip-path="url(#SVGID_11_)">
					<use xlink:href="#SVGID_10_"  overflow="visible"/>
				</clipPath>
			</g>
		</g>
	</g>
	<g clip-path="url(#SVGID_2_)">
		<defs>
			<polygon id="SVGID_13_" points="125.279,195.696 3141.029,-110 3141.029,4131.094 71.146,4131.094 			"/>
		</defs>
		<clipPath id="SVGID_14_">
			<use xlink:href="#SVGID_13_"  overflow="visible"/>
		</clipPath>
		<path clip-path="url(#SVGID_14_)" fill="none" stroke="#000000" stroke-width="7" stroke-miterlimit="10" d="M812.614,532.317
			c0,0,24.939-25.311,25.034-28.392c0.675-21.572,4.697-87.445-38.243-144.575c-51.299-53.127-85.034-99.377-104.14-110.015
			c-19.106-10.638-5.962-91.045,32.433-72.962c38.395,18.083,74.78,110.766,91.437,90.038
			c16.657-20.728-8.746-109.319,16.657-127.837c25.401-18.517,92.181-23.283,92.181,20.957s-1.739,290.285,19.714,303.949
			c21.455,13.664,55.096-0.438,55.096-0.438s-29.98-300.13-10.993-324.963c18.987-24.835,56.409-20.23,67.401-0.568
			c10.994,19.663-3.445,295.514,21.538,319.321c24.983,23.809,50.965-1.974,50.965-1.974s9.989-273.317,22.981-301.257
			c12.992-27.938,66.309-19.604,67.951,22.769c1.644,42.373-56.877,256.958-1.995,315.653
			c54.884,58.696,84.849,204.239,65.494,247.232c-21.552,22.084,143.979-45.289,183.952-31.275
			c26.99,9.461,35.518,24.819,29.229,87.708c0.061,33.657-11.992,51.229-40.473,60.543c0,0-138.01,21.167-146.893,23.29
			c-8.42,2.014-70.105,31.976-71.361,38.103c-1.498,0,85.25,5.741,126.825,19.404c0,0,134.091-33.488,134.899-23.359
			c18.3,28.687,23.816,55.663,14.988,80.724c-4.053,15.521-23.836,21.499-47.968,24.838l36.727,44.243
			c44.099,5.705,78.516,6.252,98.181,27.167c9.629,36.739,2.625,67.131-23.983,90.037c-10.433,7.412-24.005,7.37-41.971-3.104
			c5.645,38.211-1.15,73.19-17.986,105.562c21.907,10.103,21.797,28.063,35.837,41.48c7.69,7.35,32.648,53.117,33.497,69.891
			l47.583,152.533c25.7,83.147,44.65,180.029,58.49,285.033c5.141,39.017,9.576,79.149,13.391,120.122
			c2.731,29.338,5.145,59.105,7.271,89.195c1.796,25.433-4.203,76.925-4.203,76.925c14.907,36.127-8.994,94.213-8.994,94.213
			c-3.957,45.683-20.771,88.805-49.465,129.566c0,0-46.502,69.692-72.314,59.128c-24.391,32.005-45.894,15.61-61.332,19.69
			c-18.881,4.994-23.161,22.935-52.286,6.807c-8.858-5.008-35.727,21.629-53.639,2.588c-8.37-8.903-36.123,19.192-74.054-2.591
			c-5.313-3.051-24.753,4.178-65.305-7.292c-22.007-6.22-43.889,4.164-60.267-7.076l-44.833-7.762c0,0-58.461-3.105-80.945-15.523
			c-22.484-12.42-44.969-24.839-44.969-24.839s-20.867-3.803-51.112-9.314s-14.817-23.363-35.545-23.688
			c-16.284,2.18-39.381-10.533-68.951-32.303c-10.563,5.132-32.616-7.08-60.734-28.455c-17.956,1.964-31.813-3.12-39.639-18.572
			c-20.641,2.181-40.132-5.008-57.793-27.076c-18.876,8.491-31.844,4.792-38.617-18.357c-16.422,5.854-31.087,1.278-41.629-19.238
			l-49.808-23.335c9.659,31.91-6.354,83.514-19.487,85.381c27.063-5.835-146.79,53.122-181.375-29.495
			c-13.1-31.289,9.097-218.055,6.18-335.504c-0.455-18.347,6.851-34.357,2.814-37.066c-4.038-2.709-6.145-35.86-6.145-35.86
			s0.649-16.232-3.208-22.759c-6.657-11.261-7.012-15.446-4.138-29.791c-20.474-35.466-55.041-119.111-52.464-132.028
			c0,0-92.936-71.408-28.48-285.637c-1.787,0.16-49.466,35.705-62.957,30.271c-23.984-1.553-44.22-66.753-26.232-86.934
			c17.987-20.181,116.17-70.633,116.17-70.633s-88.439-52.78-94.435-60.543c-18.355-28.789,5.685-83.063,35.976-80.723
			c28.48,0,97.187,45.325,108.499,32.805c26.994-29.884-5.496-152.122-5.496-152.122l-53.279-231.514l-7.451-48.737
			c-2.562-22.454-16.919-79.766-21.416-112.599c-4.497-32.833,178.48-66.392,197.967-30.688
			c10.314,29.67,17.981,121.413,17.981,158.342"/>
		<path clip-path="url(#SVGID_14_)" fill="none" stroke="#000000" stroke-width="7" stroke-miterlimit="10" d="M186.977,803.655"/>
		<path clip-path="url(#SVGID_14_)" fill="none" stroke="#000000" stroke-width="7" stroke-miterlimit="10" d="M1089.864,1280.031
			c-31.812,141.423-57.6,280.455-31.479,312.029c18.104-4.652,64.455,223.542,64.455,223.542s10.914,34.242,26.982,65.199
			c14.63,28.188,40.472,88.485,40.472,88.485l62.45,82.277l54.47,68.305l77.945,60.541c47.559,29.054,98.934,46.572,98.934,46.572
			c33.126,12.871,79.818,5.821,79.818,5.821c13.522-6.313,28.105-27.555,28.105-27.555c12.545,1.694,19.487-65.199,20.986-71.408
			c1.499-6.21,18.672-93.634,8.994-91.591c0,0-0.75-65.977,0-65.201c0.749,0.777,0-97.799,0-97.799s-8.393-85.339-30.729-118.757
			l-2.249-36.48l-17.988-52.006l-8.243-35.705l-23.982-34.151l-11.242-48.9c0,0-20.83-22.816-28.479-54.333
			c0.394-4.307-13.491-24.837-13.491-24.837s-20.295-26.452-23.796-64.048c-13.68-27.543-4.177-45.197-9.182-61.695l49.467-46.572
			c15.411-31.168,12.19-94.292,2.998-167.657c-5.443-55.965-38.753-106.166-86.941-162.999l-46.468-32.6
			c-36.508-13.042-81.159-19.758-131.909-21.734c-44.505,41.902-88.275,84.206-107.927,139.714L1089.864,1280.031z"/>
		<path clip-path="url(#SVGID_14_)" fill="none" stroke="#000000" stroke-width="7" stroke-miterlimit="10" d="M757.914,1734.952"/>
		<path clip-path="url(#SVGID_14_)" fill="none" stroke="#000000" stroke-width="7" stroke-miterlimit="10" d="M799.814,1238.117
			c42.071-60.631,70.292-169.605,188.121-122.638c68.952,23.284,94.263,89.456,77.946,181.627l-62.957,313.582
			c-28.612,45.888,7.307,126.596,14.989,117.979c-5.991,8.316,6.409,56.162,20.236,44.242c0,0,3.263,88.218,15.739,84.605
			c-2.998,18.629,3.383,55.222,20.236,42.689c1.917-2.847,6.745,42.691,6.745,42.691c3.865,13.899,12.804,31.567,23.234,27.165
			c-1.39,21.292-1.73,26.928,5.246,38.035c4.008,22.928,18.057,44.864,29.23,50.452c0.547,21.566-2.286,32.776,5.247,47.349
			c10.195,19.968,23.597,31.874,38.973,38.808c6.891,18.681,15.613,31.985,25.482,41.915c-4.257,21.478,24.732,48.9,24.732,48.9
			l-0.749,2.328c4.528,16.36-19.487,48.124-19.487,48.124c-18.191-36.499-44.484,6.167-46.468,6.209l0.749-0.776
			c0,0-28.972-46.632-45.718-17.853c0,0-33.185-41.194-52.464-14.575c0,0-19.62-39.528-28.48-19.577l-4.498-1.552
			c0,0-27.901-48.258-41.971-35.705c-4.502,14.256-14.602,13.726-11.242,24.063l-20.985-24.839
			c-11.991-4.656-19.747-2.983-20.236-0.776c-7.7,4.679,1.5,21.733,1.5,21.733s-62.521-58.028-88.439-18.629
			c3.635-16.188-0.868-27.57-18.738-31.047l-29.229,3.105c0,0,15.915-33.07-4.497-40.361c-15.861-0.631-48.828-26.813-53.963-9.314
			c-8.882-8.884-5.077-26.445-16.488-18.629l-13.491,15.523c4.588-26.023,3.318-52.926-17.988-68.305
			c-4.499-7.24-10.858-2.883-20.985,10.867c-5.971,0.996-11.694-4.539-16.489-12.419c3.506-8.903,7.935-29.196-6.746-36.481
			c-10.035-2.312-15.345-0.516-23.234-2.329c0.585-10.314,0.658-20.023-5.995-21.732c-2.888-15.562-36.903-8.127-36.725-10.091
			c10.75-4.129-5.246-25.615-5.246-25.615s-6.545-8.134-14.989-7.763c0,0,7.062-27.798,0-37.257
			c-6.675-8.939-17.989-15.523-17.989-15.523c15.388-11.133-9.327-57.798-16.488-58.989c12.546-11.911-2.998-37.257-8.245-42.69
			c-5.246-5.434-6.745-13.195-6.745-13.195s-35.975-27.276-43.109-60.46c-0.446-2.074-0.256-3.762,0.504-5.097
			c11.401-20.023,151.208,39.286,200.926,63.124c48.896,18.039-60.528-89.075-218.28-88.382
			c-67.038-27.203-113.61-102.888-131.909-236.737c-2.26-82.382-0.412-184.227,52.464-265.457
			c8.332-22.766,24.848-50.587,56.96-74.515c40.584-38.859,85.939-57.113,157.392-62.095c53.407-8.423,129.424,24.41,155.892,47.347
			c24.408,21.153,67.896,96.716,61.521,120.375"/>
		<path clip-path="url(#SVGID_14_)" fill="none" stroke="#000000" stroke-width="7" stroke-miterlimit="10" d="M667.155,949.375
			c40.022,152.113,160.134,205.027,163.388,195.6l101.93-212.676c-33.858-55.623,19.514-133.542,59.958-142.818
			c20.821-3.955,69.783-2.223,85.441,0c0,0,134.37-29.337,207.458-45.974"/>
		<path clip-path="url(#SVGID_14_)" fill="none" stroke="#000000" stroke-width="3" stroke-miterlimit="10" d="M792.946,1256.061
			c15.933-0.866-20.088-106.578-33.979-120.013c-35.226-55.885-110.166-63.605-168.259-64.035
			c-23.714,1.577-52.72,15.64-82.442,35.704c-31.828,23.933-62.172,54.557-91.437,90.039c6.244,4.896,7.235,12.965,4.497,23.286
			c-1.613,9.043-8.704,13.358-16.488,17.076c-2.47,14.769-5.997,32.6-4.498,49.676c-5.487,10.282-15.314,16.179-25.482,21.733
			c5.948,9.427,9.704,20.143,10.493,32.6c-5.492,10.415-13.97,16.134-25.482,17.076c8.347,7.624,12.192,15.391,11.992,23.286
			c-2.275,7.626-6.007,12.737-11.992,13.971c8.869,5.576,14.323,13.917,19.486,24.838c0.937,16.403-10.321,22.724-26.981,26.391
			c7.989,6.048,12.307,12.811,13.491,20.181c4.822,2.202,0.315,11.847-4.497,21.734c11.887-3.057,16.048,0.796,14.989,9.313
			l-7.495,13.972c15.378,2.761,20.908,43.952,7.495,48.124c16.354,18.169,27.624,40.209,32.978,66.751
			c12.991,2.693,23.942,7.836,31.478,17.077c5.82,8.09,9.142,15.544,7.495,21.732c11.992,7.763,17.848,10.923,22.042,23.656"/>
		<path clip-path="url(#SVGID_14_)" fill="none" stroke="#000000" stroke-width="2" stroke-miterlimit="10" d="M319.424,559.688
			c9.169-23.875,152.105-40.459,173.88-18.629c-26.732,15.729-41.778,22.096-87.939,21.733
			c-3.034,10.441-21.454,10.847-39.972,9.314C367.412,572.877,320.536,566.787,319.424,559.688z"/>
		<path clip-path="url(#SVGID_14_)" fill="none" stroke="#000000" stroke-width="2" stroke-miterlimit="10" d="M1478.848,720.399
			c-10.66-2.265-23.985,52.781-23.985,52.781s-3.334,46.573,2.998,58.99C1487.965,887.956,1517.812,738.123,1478.848,720.399z"/>
		<path clip-path="url(#SVGID_14_)" fill="none" stroke="#000000" stroke-width="3" stroke-miterlimit="10" d="M404.837,1761.268"/>
		<path clip-path="url(#SVGID_14_)" fill="none" stroke="#000000" stroke-width="3" stroke-miterlimit="10" d="M1100.355,1245.443
			c15.353-16.477,187.732,186.803,187.732,186.803"/>
		<path clip-path="url(#SVGID_14_)" fill="none" stroke="#000000" stroke-width="3" stroke-miterlimit="10" d="M1221.521,934.104
			c58.977,4.082,114.033,17.428,165.138,40.108c34.377,22.832,65.588,63.379,86.938,111.771
			c17.989,55.887,13.49,135.058-8.992,208.019c0,0-23.123,110.82-26.123,75.115"/>
		<path clip-path="url(#SVGID_14_)" fill="none" stroke="#000000" stroke-width="5" stroke-miterlimit="10" d="M1052.241,1521.839
			c0.545,1.988-12.298-12.021,1.647,5.021c24.982,30.53,65.95,31.383,93.684,31.906c47.72-2.065,42.473-31.906,3.997-26.995
			c-36.972,3.11-100.932-27.871-100.932-27.871"/>
		<path clip-path="url(#SVGID_14_)" fill="none" stroke="#000000" stroke-width="5" stroke-miterlimit="10" d="M1122.496,1425.155"
			/>
		<path clip-path="url(#SVGID_14_)" fill="none" stroke="#000000" stroke-width="5" stroke-miterlimit="10" d="M1220.274,1370.068
			c-4.076-9.295,23.846,60.126,16.395,54.879"/>
		<path clip-path="url(#SVGID_14_)" fill="none" stroke="#000000" stroke-width="5" stroke-miterlimit="10" d="M1174.537,1526.101"
			/>
		<path clip-path="url(#SVGID_14_)" fill="none" stroke="#000000" stroke-width="5" stroke-miterlimit="10" d="M1249.691,1435.851"
			/>
		<path clip-path="url(#SVGID_14_)" fill="none" stroke="#000000" stroke-width="5" stroke-miterlimit="10" d="M1050.891,1526.859"
			/>
		<path clip-path="url(#SVGID_14_)" fill="none" stroke="#000000" stroke-width="5" stroke-miterlimit="10" d="M1050.891,1370.068"
			/>
		<path clip-path="url(#SVGID_14_)" fill="none" stroke="#000000" stroke-width="5" stroke-miterlimit="10" d="M784.075,1299.436"/>
		<path clip-path="url(#SVGID_14_)" fill="none" stroke="#000000" stroke-width="5" stroke-miterlimit="10" d="M799.814,1238.117
			l-16.88,134.623l-15.236,87.64c16.226,62.179,39.115,82.465,77.753,106.696c40.347,10.66,31.246-27.385,31.246-27.385
			s-44.635-9.128-70.141-47.724c-26.421-29.401-23.584-84.939-28.39-89.916"/>
		<path clip-path="url(#SVGID_14_)" fill="none" stroke="#000000" stroke-width="5" stroke-miterlimit="10" d="M1029.559,1466.922
			c-3.879,6.5-39.401,56.367-69.322,64.677c-34.658,9.617-68.923,11.255-68.923,11.255s-21.299,13.127-9.105,34.22
			c43.789,18.567,134.058-36.687,139.322-59.067"/>
		<path clip-path="url(#SVGID_14_)" fill="none" stroke="#000000" stroke-width="7" stroke-miterlimit="10" d="M1233.626,1423.45
			c41.224,22.241,106.948,113.026,135.047,142.476c23.641-7.443-106.522-180.799-148.398-195.857
			c-6.008-2.161-129.233-96.307-129.233-96.307"/>
		<path clip-path="url(#SVGID_14_)" fill="none" stroke="#000000" stroke-width="7" stroke-miterlimit="10" d="M1461.609,1413.536
			c-20.123,18.714-27.75,116.471-34.478,144.112c-28.431-0.769,4.295-204.655,26.981-209.312"/>
		<path clip-path="url(#SVGID_14_)" fill="none" stroke="#000000" stroke-width="7" stroke-miterlimit="10" d="M828.99,515.158
			C731.841,615.77,614.221,750.112,667.156,949.375"/>
		<path clip-path="url(#SVGID_14_)" fill="none" stroke="#000000" stroke-width="7" stroke-miterlimit="10" d="M661.646,915.91"/>
	</g>
</g>
<path fill="none" stroke="#000000" stroke-width="5" stroke-miterlimit="10" d="M1251.159,1434.587
	c-0.802,9.109-8.342,71.72-38.066,101.313c-31.542,25.396-37.08-6.816-23.669-20.45c13.412-13.634,47.245-90.503,47.245-90.503"/>
<line fill="none" stroke="#000000" stroke-width="7" stroke-miterlimit="10" x1="490.517" y1="1746.89" x2="443.435" y2="1682.508"/>
<path fill="none" stroke="#000000" stroke-width="5" stroke-miterlimit="10" d="M778.525,1487.699
	c-11.304,53.379-33.563,165.502-20.612,247.253c-53.923-22.76,0.853-228.911,9.94-278.325"/>
<line fill="none" stroke="#000000" stroke-width="7" stroke-miterlimit="10" x1="830.543" y1="1144.975" x2="811.483" y2="1201.826"/>
<path fill="none" stroke="#000000" stroke-width="7" stroke-miterlimit="10" d="M946.821,469.252"/>
</svg>
